<svg width="166" height="40" viewBox="0 0 166 40" fill="none" xmlns="http://www.w3.org/2000/svg">
<path d="M62.1287 25.6999V11.2775H65.1973V30.8049H62.1845L51.3328 16.3825V30.8049H48.2363V11.2775H51.2491L62.1287 25.6999Z" fill="white"/>
<path d="M73.2199 16.2709C74.9309 16.2709 76.3257 16.7173 77.4043 17.61C78.483 18.5026 79.0223 19.7859 79.0223 21.4597V30.8049H76.0932V28.6848C74.9216 30.2842 73.2664 31.0839 71.1277 31.0839C69.77 31.0839 68.6635 30.7212 67.808 29.9959C66.9525 29.2706 66.5248 28.3036 66.5248 27.0947C66.5248 25.6999 67.0176 24.6584 68.0033 23.9703C68.9889 23.2636 70.2443 22.8266 71.7693 22.6592L74.531 22.3802C75.5725 22.2872 76.0932 21.8223 76.0932 20.9854C76.0932 20.2973 75.8235 19.7487 75.2842 19.3395C74.7635 18.9304 74.0754 18.7258 73.2199 18.7258C72.3458 18.7258 71.6019 18.949 70.9882 19.3953C70.3931 19.8417 70.0118 20.4926 69.8444 21.3481L66.9432 20.6507C67.2036 19.3116 67.901 18.2516 69.0354 17.4705C70.1699 16.6708 71.5647 16.2709 73.2199 16.2709ZM71.7693 28.7127C72.9781 28.7127 74.001 28.3129 74.8379 27.5132C75.6748 26.6949 76.0932 25.7464 76.0932 24.6677V24.1098C75.8514 24.333 75.3121 24.4911 74.4752 24.584L71.7693 24.9188C71.0626 25.0118 70.4953 25.2257 70.0676 25.5604C69.6584 25.8766 69.4539 26.3136 69.4539 26.8715C69.4539 27.4295 69.6584 27.8758 70.0676 28.2106C70.4953 28.5453 71.0626 28.7127 71.7693 28.7127Z" fill="white"/>
<path d="M89.072 16.2709C91.0619 16.2709 92.7264 16.9869 94.0654 18.419C95.423 19.8324 96.1018 21.5898 96.1018 23.6914C96.1018 25.7929 95.423 27.5504 94.0654 28.9638C92.7264 30.3772 91.0619 31.0839 89.072 31.0839C86.9518 31.0839 85.2595 30.2842 83.9948 28.6848V36.3842H81.0657V16.5499H83.9948V18.67C85.2595 17.0706 86.9518 16.2709 89.072 16.2709ZM88.5419 28.3779C89.8252 28.3779 90.8945 27.9316 91.75 27.0389C92.6241 26.1462 93.0611 25.0304 93.0611 23.6914C93.0611 22.3337 92.6241 21.2086 91.75 20.3159C90.8945 19.4232 89.8252 18.9769 88.5419 18.9769C87.2401 18.9769 86.1521 19.4232 85.2781 20.3159C84.4226 21.2086 83.9948 22.3337 83.9948 23.6914C83.9948 25.0304 84.4226 26.1462 85.2781 27.0389C86.1521 27.9316 87.2401 28.3779 88.5419 28.3779Z" fill="white"/>
<path d="M98.9285 19.1443H95.8878V16.5499H98.9285V11.9191L101.858 10.9985V16.5499H105.875V19.1443H101.858V25.7278C101.858 26.6019 102.053 27.2342 102.443 27.6247C102.834 28.0153 103.457 28.2106 104.312 28.2106H105.875V30.8049H104.312C102.471 30.8049 101.114 30.3772 100.24 29.5217C99.3656 28.6662 98.9285 27.3551 98.9285 25.5883V19.1443Z" fill="white"/>
<path d="M114.49 16.2709C117.897 16.0916 120.664 18.6409 120.664 22.0099V30.8049H117.735V22.7429C117.735 20.6005 116.283 18.7258 113.913 18.949C111.917 19.137 110.422 20.8217 110.422 22.7429V30.8049H107.493V10.9985H110.422V18.5863C111.441 17.1677 112.699 16.3652 114.49 16.2709Z" fill="white"/>
<path d="M128.576 16.2709C130.287 16.2709 131.682 16.7173 132.761 17.61C133.84 18.5026 134.379 19.7859 134.379 21.4597V30.8049H131.45V28.6848C130.278 30.2842 128.623 31.0839 126.484 31.0839C125.127 31.0839 124.02 30.7212 123.165 29.9959C122.309 29.2706 121.881 28.3036 121.881 27.0947C121.881 25.6999 122.374 24.6584 123.36 23.9703C124.346 23.2636 125.601 22.8266 127.126 22.6592L129.888 22.3802C130.929 22.2872 131.45 21.8223 131.45 20.9854C131.45 20.2973 131.18 19.7487 130.641 19.3395C130.12 18.9304 129.432 18.7258 128.576 18.7258C127.702 18.7258 126.958 18.949 126.345 19.3953C125.75 19.8417 125.368 20.4926 125.201 21.3481L122.3 20.6507C122.56 19.3116 123.258 18.2516 124.392 17.4705C125.526 16.6708 126.921 16.2709 128.576 16.2709ZM127.126 28.7127C128.335 28.7127 129.358 28.3129 130.194 27.5132C131.031 26.6949 131.45 25.7464 131.45 24.6677V24.1098C131.208 24.333 130.669 24.4911 129.832 24.584L127.126 24.9188C126.419 25.0118 125.852 25.2257 125.424 25.5604C125.015 25.8766 124.81 26.3136 124.81 26.8715C124.81 27.4295 125.015 27.8758 125.424 28.2106C125.852 28.5453 126.419 28.7127 127.126 28.7127Z" fill="white"/>
<path d="M162.026 30.8049H158.734L156.781 26.0904H147.38L145.427 30.8049H142.275L150.477 11.2775H153.852L162.026 30.8049ZM152.095 14.6809L148.524 23.3287H155.637L152.095 14.6809Z" fill="white"/>
<path d="M165.892 30.8049H162.795V11.2775H165.892V30.8049Z" fill="white"/>
<path d="M6.73329 30.5989C4.12888 30.5989 2.01758 28.4876 2.01758 25.8832C2.01758 23.8569 3.34635 22.1483 5.11288 21.4759C6.49562 20.9495 8.02284 20.358 8.72292 19.0546C9.43116 17.736 9.11086 16.1358 8.53592 14.7538C6.76769 10.5037 9.5729 5.58864 14.6853 5.54087C19.4458 5.49638 22.2339 9.59085 21.2965 13.6611C20.862 15.5478 20.2938 17.6646 21.3662 19.4569C22.0678 20.6176 23.2828 21.5373 24.9027 21.5373C28.0465 21.5373 29.6246 18.5205 28.7444 15.5135C27.8844 12.5757 30.1652 9.47063 33.2708 9.47063C35.8752 9.47063 37.9865 11.5819 37.9865 14.1863C37.9865 16.2126 36.6577 17.9212 34.8912 18.5937C33.5084 19.12 31.9812 19.7115 31.2811 21.0149C30.5729 22.3335 30.8932 23.9338 31.4681 25.3157C33.2364 29.5658 30.2921 34.5287 25.3188 34.5287C20.3454 34.5287 17.7701 30.4787 18.7075 26.4085C19.1119 24.6524 19.644 22.7156 18.8437 20.9825C18.1884 19.6536 16.89 18.5322 15.1014 18.5322C11.9576 18.5322 10.3795 21.5491 11.2597 24.556C12.1196 27.4939 9.83886 30.5989 6.73329 30.5989Z" fill="url(#paint0_radial_8039_5500)"/>
<path d="M6.73329 30.5989C4.12888 30.5989 2.01758 28.4876 2.01758 25.8832C2.01758 23.8569 3.34635 22.1483 5.11288 21.4759C6.49562 20.9495 8.02284 20.358 8.72292 19.0546C9.43116 17.736 9.11086 16.1358 8.53592 14.7538C6.76769 10.5037 9.5729 5.58864 14.6853 5.54087C19.4458 5.49638 22.2339 9.59085 21.2965 13.6611C20.862 15.5478 20.2938 17.6646 21.3662 19.4569C22.0678 20.6176 23.2828 21.5373 24.9027 21.5373C28.0465 21.5373 29.6246 18.5205 28.7444 15.5135C27.8844 12.5757 30.1652 9.47063 33.2708 9.47063C35.8752 9.47063 37.9865 11.5819 37.9865 14.1863C37.9865 16.2126 36.6577 17.9212 34.8912 18.5937C33.5084 19.12 31.9812 19.7115 31.2811 21.0149C30.5729 22.3335 30.8932 23.9338 31.4681 25.3157C33.2364 29.5658 30.2921 34.5287 25.3188 34.5287C20.3454 34.5287 17.7701 30.4787 18.7075 26.4085C19.1119 24.6524 19.644 22.7156 18.8437 20.9825C18.1884 19.6536 16.89 18.5322 15.1014 18.5322C11.9576 18.5322 10.3795 21.5491 11.2597 24.556C12.1196 27.4939 9.83886 30.5989 6.73329 30.5989Z" fill="white"/>
<defs>
<radialGradient id="paint0_radial_8039_5500" cx="0" cy="0" r="1" gradientUnits="userSpaceOnUse" gradientTransform="translate(35.3354 12.1669) rotate(157.228) scale(33.8013 40.8039)">
<stop offset="0.0597621" stop-color="#FDFF94"/>
<stop offset="0.271875" stop-color="#FFCF25"/>
<stop offset="0.585025" stop-color="#F9414C"/>
<stop offset="0.790078" stop-color="#8652F5"/>
<stop offset="1" stop-color="#2A80BE"/>
</radialGradient>
</defs>
</svg>
